<?xml version="1.0" encoding="UTF-8" standalone="no"?>
<!-- Svg Vector Icons : http://www.onlinewebfonts.com/icon -->

<svg
   xmlns:dc="http://purl.org/dc/elements/1.1/"
   xmlns:cc="http://creativecommons.org/ns#"
   xmlns:rdf="http://www.w3.org/1999/02/22-rdf-syntax-ns#"
   xmlns:svg="http://www.w3.org/2000/svg"
   xmlns="http://www.w3.org/2000/svg"
   xmlns:sodipodi="http://sodipodi.sourceforge.net/DTD/sodipodi-0.dtd"
   xmlns:inkscape="http://www.inkscape.org/namespaces/inkscape"
   version="1.1"
   x="0px"
   y="0px"
   viewBox="0 0 1000 1000"
   enable-background="new 0 0 1000 1000"
   xml:space="preserve"
   id="svg8425"
   sodipodi:docname="gear.svg"
   inkscape:version="0.92.1 r15371"><defs
     id="defs8429" /><sodipodi:namedview
     pagecolor="#ffffff"
     bordercolor="#666666"
     borderopacity="1"
     objecttolerance="10"
     gridtolerance="10"
     guidetolerance="10"
     inkscape:pageopacity="0"
     inkscape:pageshadow="2"
     inkscape:window-width="1920"
     inkscape:window-height="1017"
     id="namedview8427"
     showgrid="false"
     inkscape:zoom="0.85"
     inkscape:cx="500"
     inkscape:cy="123.52941"
     inkscape:window-x="-8"
     inkscape:window-y="-8"
     inkscape:window-maximized="1"
     inkscape:current-layer="svg8425" /><metadata
     id="metadata8417"> Svg Vector Icons : http://www.onlinewebfonts.com/icon <rdf:RDF><cc:Work
     rdf:about=""><dc:format>image/svg+xml</dc:format><dc:type
       rdf:resource="http://purl.org/dc/dcmitype/StillImage" /></cc:Work></rdf:RDF></metadata><g
     id="g8423"><g
       transform="translate(0.000000,511.000000) scale(0.100000,-0.100000)"
       id="g8421"><path
         d="M 4485.5,4975.3 C 4465.1,4952.8 4424.2,4773.2 4379.3,4499.6 C 4338.5,4258.7 4295.6,4040.2 4285.4,4017.8 C 4273.1,3985.1 4242.5,3970.8 4171.1,3958.6 C 4118,3950.4 3987.3,3917.8 3879.1,3885.1 L 3683.1,3825.9 L 3601.4,3919.8 C 3556.5,3972.9 3413.6,4140.3 3284.9,4293.4 C 3131.8,4475.1 3033.8,4573.1 3003.2,4577.2 C 2972.6,4581.3 2821.5,4505.7 2574.4,4364.9 C 2145.6,4119.9 2121.1,4101.5 2121.1,4040.3 C 2121.1,4017.8 2192.6,3801.4 2282.4,3560.5 L 2443.7,3121.5 L 2217.1,2892.8 L 1992.5,2664.1 L 1919,2692.7 C 1627,2807 1104.4,2988.7 1069.7,2988.7 C 1008.4,2988.7 990.1,2966.2 745.1,2535.4 C 604.2,2288.4 528.7,2137.3 532.8,2106.6 C 536.9,2076 634.9,1978 816.6,1824.9 C 969.7,1696.3 1137.1,1553.4 1190.2,1508.4 L 1284.1,1426.7 L 1224.9,1230.7 C 1192.2,1122.5 1159.6,991.8 1151.4,938.7 C 1139.1,867.2 1124.9,836.6 1092.2,824.4 C 1069.7,814.2 857.4,773.4 620.6,732.5 C 383.8,691.7 171.4,644.7 144.9,628.4 C 100,600 100,593.9 100,112 C 100,-324.9 104.1,-376 136.7,-404.5 C 157.1,-424.9 338.8,-465.8 600.2,-510.7 C 837,-551.5 1049.4,-590.3 1073.9,-594.4 C 1106.6,-602.6 1124.9,-629.1 1141.3,-692.4 C 1151.5,-739.4 1186.2,-870 1218.9,-982.3 C 1249.5,-1094.6 1274,-1194.6 1274,-1202.8 C 1274,-1213 1108.6,-1360 906.5,-1529.5 C 661.5,-1737.8 537,-1856.2 532.9,-1886.8 C 528.8,-1917.4 604.4,-2068.5 745.2,-2315.6 C 992.2,-2748.4 1008.6,-2768.9 1069.8,-2768.9 C 1094.3,-2768.9 1310.7,-2695.4 1551.6,-2607.6 L 1988.5,-2446.3 L 2217.2,-2672.9 L 2445.9,-2897.5 L 2417.3,-2971 C 2303,-3263 2121.3,-3785.6 2121.3,-3820.3 C 2121.3,-3881.6 2143.8,-3897.9 2574.6,-4144.9 C 2821.6,-4285.8 2972.7,-4361.3 3003.4,-4357.2 C 3034,-4353.1 3148.4,-4234.7 3346.4,-3999.9 C 3509.7,-3805.9 3652.7,-3640.6 3662.9,-3628.3 C 3677.2,-3616.1 3750.7,-3628.3 3879.3,-3667.1 C 3987.5,-3697.7 4118.2,-3730.4 4171.3,-3738.6 C 4242.8,-3750.8 4273.4,-3765.1 4285.6,-3797.8 C 4295.8,-3820.3 4338.7,-4038.7 4379.5,-4279.6 C 4424.4,-4549.1 4467.3,-4732.9 4485.7,-4753.3 C 4514.3,-4786 4565.3,-4790 5002.2,-4790 C 5484,-4790 5490.2,-4790 5518.8,-4743 C 5535.1,-4718.5 5582.1,-4506.2 5622.9,-4269.3 C 5663.7,-4032.5 5704.6,-3820.1 5714.8,-3797.7 C 5727,-3765 5757.7,-3750.7 5829.1,-3738.5 C 5882.2,-3730.3 6012.9,-3697.7 6121.1,-3665 L 6317.1,-3605.8 L 6398.8,-3699.7 C 6443.7,-3752.8 6586.6,-3920.2 6715.3,-4073.3 C 6868.4,-4253 6966.4,-4353 6997,-4357.1 C 7025.6,-4361.2 7180.8,-4285.6 7425.8,-4144.8 C 7858.6,-3895.7 7879.1,-3881.4 7879.1,-3820.2 C 7879.1,-3795.7 7805.6,-3579.3 7717.8,-3338.4 L 7556.5,-2901.5 L 7781.1,-2672.8 L 8007.7,-2444.1 L 8081.2,-2472.7 C 8373.2,-2587 8895.8,-2768.7 8930.5,-2768.7 C 8991.8,-2768.7 9008.1,-2746.2 9255.1,-2315.4 C 9396,-2070.4 9471.5,-1917.3 9467.4,-1886.6 C 9463.3,-1856 9336.7,-1735.5 9093.8,-1529.3 C 8891.7,-1359.8 8728.3,-1206.7 8730.4,-1192.4 C 8730.4,-1178.1 8765.1,-1041.3 8803.9,-890.2 C 8857,-686 8885.6,-612.5 8914.2,-600.3 C 8934.6,-592.1 9144.9,-553.3 9379.7,-512.5 C 9616.5,-471.7 9828.9,-424.7 9855.4,-408.4 C 9900,-380 9900,-373.9 9900,110 C 9900,593.9 9900,600 9855.1,628.6 C 9828.6,644.9 9616.2,691.9 9379.4,732.7 C 9144.6,773.5 8934.3,812.3 8913.9,820.5 C 8885.3,832.8 8856.7,904.2 8803.6,1110.4 C 8764.8,1261.5 8732.1,1398.3 8730.1,1412.6 C 8728,1426.9 8891.4,1578 9093.5,1749.5 C 9338.5,1957.8 9463,2076.2 9467.1,2106.8 C 9471.2,2137.4 9395.6,2288.5 9254.8,2535.6 C 9007.7,2966.4 8991.4,2988.9 8930.2,2988.9 C 8895.5,2988.9 8372.8,2807.2 8080.9,2692.9 L 8007.4,2664.3 L 7782.8,2893 L 7556.2,3121.7 L 7717.5,3560.7 C 7805.3,3801.6 7878.8,4018 7878.8,4042.5 C 7878.8,4101.7 7856.3,4118 7425.5,4365.1 C 7178.5,4506 7027.4,4581.5 6996.7,4577.4 C 6966.1,4573.3 6868.1,4475.3 6715,4293.6 C 6586.4,4140.5 6443.5,3973.1 6398.5,3920 L 6316.8,3826.1 L 6120.8,3885.3 C 6012.6,3918 5881.9,3950.6 5828.8,3958.8 C 5757.3,3971.1 5726.7,3985.3 5712.4,4018 C 5704.2,4040.5 5661.4,4254.8 5622.6,4489.6 C 5581.8,4726.4 5534.8,4938.8 5518.5,4965.3 C 5489.9,5010.2 5483.8,5010.2 5001.9,5010.2 C 4565.1,5010 4514.1,5005.9 4485.5,4975.3 Z M 5574.8548,3748.8529 C 6354.2219,3623.8023 6998.9552,3290.1245 7563.4112,2725.6686 C 8301.147,1987.9327 8679.7551,1016.1197 8625.2418,2.5183446 C 8602.7767,-440.02892 8528.9403,-770.56475 8365.4004,-1177.7648 C 8182.5374,-1630.0522 7919.5541,-2024.5272 7563.5683,-2380.513 C 6623.8034,-3323.577 5270.2403,-3673.2789 4000.0966,-3307.5529 C 3438.7827,-3144.0131 2938.4231,-2848.8245 2489.4348,-2419.1593 C 1235.3152,-1213.112 1029.9871,704.90699 1998.6582,2193.2608 C 2175.0801,2462.6852 2720.37,3007.9751 2989.7944,3184.397 C 3772.3034,3694.1826 4686.4612,3893.0696 5574.8548,3748.8529 Z"
         id="path8419"
         inkscape:connector-curvature="0"
         sodipodi:nodetypes="ccccccccscscccccsccccccccccscccccscscscccccscccccccccsccccccccccscccccsccccccccsccccccscscccccscccccccccccccscccccccc" /></g></g></svg>