<?xml version="1.0" encoding="utf-8"?>
<!-- Svg Vector Icons : http://www.onlinewebfonts.com/icon -->
<!DOCTYPE svg PUBLIC "-//W3C//DTD SVG 1.1//EN" "http://www.w3.org/Graphics/SVG/1.1/DTD/svg11.dtd">
<svg version="1.1" xmlns="http://www.w3.org/2000/svg" xmlns:xlink="http://www.w3.org/1999/xlink" x="0px" y="0px" viewBox="0 0 1000 1000" enable-background="new 0 0 1000 1000" xml:space="preserve">
<metadata> Svg Vector Icons : http://www.onlinewebfonts.com/icon </metadata>
<g><g transform="translate(0.000000,511.000000) scale(0.100000,-0.100000)"><path d="M4485.5,4975.3c-20.4-22.5-61.3-202.1-106.2-475.7c-40.8-240.9-83.7-459.4-93.9-481.8c-12.3-32.7-42.9-47-114.3-59.2c-53.1-8.2-183.8-40.8-292-73.5l-196-59.2l-81.7,93.9c-44.9,53.1-187.8,220.5-316.5,373.6c-153.1,181.7-251.1,279.7-281.7,283.8c-30.6,4.1-181.7-71.5-428.8-212.3c-428.8-245-453.3-263.4-453.3-324.6c0-22.5,71.5-238.9,161.3-479.8l161.3-439l-226.6-228.7l-224.6-228.7l-73.5,28.6c-292,114.3-814.6,296-849.3,296c-61.3,0-79.6-22.5-324.6-453.3c-140.9-247-216.4-398.1-212.3-428.8c4.1-30.6,102.1-128.6,283.8-281.7c153.1-128.6,320.5-271.5,373.6-316.5l93.9-81.7l-59.2-196c-32.7-108.2-65.3-238.9-73.5-292c-12.3-71.5-26.5-102.1-59.2-114.3c-22.5-10.2-234.8-51-471.6-91.9c-236.8-40.8-449.2-87.8-475.7-104.1C100,600,100,593.9,100,112c0-436.9,4.1-488,36.7-516.5c20.4-20.4,202.1-61.3,463.5-106.2c236.8-40.8,449.2-79.6,473.7-83.7c32.7-8.2,51-34.7,67.4-98c10.2-47,44.9-177.6,77.6-289.9c30.6-112.3,55.1-212.3,55.1-220.5c0-10.2-165.4-157.2-367.5-326.7c-245-208.3-369.5-326.7-373.6-357.3c-4.1-30.6,71.5-181.7,212.3-428.8c247-432.8,263.4-453.3,324.6-453.3c24.5,0,240.9,73.5,481.8,161.3l436.9,161.3l228.7-226.6l228.7-224.6l-28.6-73.5c-114.3-292-296-814.6-296-849.3c0-61.3,22.5-77.6,453.3-324.6c247-140.9,398.1-216.4,428.8-212.3c30.6,4.1,145,122.5,343,357.3c163.3,194,306.3,359.3,316.5,371.6c14.3,12.2,87.8,0,216.4-38.8c108.2-30.6,238.9-63.3,292-71.5c71.5-12.2,102.1-26.5,114.3-59.2c10.2-22.5,53.1-240.9,93.9-481.8c44.9-269.5,87.8-453.3,106.2-473.7c28.6-32.7,79.6-36.7,516.5-36.7c481.8,0,488,0,516.6,47c16.3,24.5,63.3,236.8,104.1,473.7c40.8,236.8,81.7,449.2,91.9,471.6c12.2,32.7,42.9,47,114.3,59.2c53.1,8.2,183.8,40.8,292,73.5l196,59.2l81.7-93.9c44.9-53.1,187.8-220.5,316.5-373.6c153.1-179.7,251.1-279.7,281.7-283.8c28.6-4.1,183.8,71.5,428.8,212.3c432.8,249.1,453.3,263.4,453.3,324.6c0,24.5-73.5,240.9-161.3,481.8l-161.3,436.9l224.6,228.7l226.6,228.7l73.5-28.6c292-114.3,814.6-296,849.3-296c61.3,0,77.6,22.5,324.6,453.3c140.9,245,216.4,398.1,212.3,428.8c-4.1,30.6-130.7,151.1-373.6,357.3c-202.1,169.5-365.5,322.6-363.4,336.9c0,14.3,34.7,151.1,73.5,302.2c53.1,204.2,81.7,277.7,110.3,289.9c20.4,8.2,230.7,47,465.5,87.8c236.8,40.8,449.2,87.8,475.7,104.1C9900-380,9900-373.9,9900,110s0,490-44.9,518.6c-26.5,16.3-238.9,63.3-475.7,104.1c-234.8,40.8-445.1,79.6-465.5,87.8c-28.6,12.3-57.2,83.7-110.3,289.9c-38.8,151.1-71.5,287.9-73.5,302.2c-2.1,14.3,161.3,165.4,363.4,336.9c245,208.3,369.5,326.7,373.6,357.3c4.1,30.6-71.5,181.7-212.3,428.8c-247.1,430.8-263.4,453.3-324.6,453.3c-34.7,0-557.4-181.7-849.3-296l-73.5-28.6l-224.6,228.7l-226.6,228.7l161.3,439c87.8,240.9,161.3,457.3,161.3,481.8c0,59.2-22.5,75.5-453.3,322.6c-247,140.9-398.1,216.4-428.8,212.3c-30.6-4.1-128.6-102.1-281.7-283.8c-128.6-153.1-271.5-320.5-316.5-373.6l-81.7-93.9l-196,59.2c-108.2,32.7-238.9,65.3-292,73.5c-71.5,12.3-102.1,26.5-116.4,59.2c-8.2,22.5-51,236.8-89.8,471.6c-40.8,236.8-87.8,449.2-104.1,475.7c-28.6,44.9-34.7,44.9-516.6,44.9C4565.1,5010,4514.1,5005.9,4485.5,4975.3z M5359.3,2386.5c496.1-79.6,906.5-292,1265.8-651.3C7094.7,1265.6,7335.7,647,7301,1.8c-14.3-281.7-61.3-492.1-165.4-751.3c-116.4-287.9-283.8-539-510.4-765.6C6027-2115.4,5165.4-2338,4356.9-2105.2c-357.3,104.1-675.8,292-961.6,565.5C2597-772,2466.3,448.9,3082.9,1396.3c112.3,171.5,459.4,518.6,630.9,630.9C4211.9,2351.7,4793.8,2478.3,5359.3,2386.5z"/></g></g>
</svg>