<svg width='200' height='200' fill="#000000" xmlns="http://www.w3.org/2000/svg" xmlns:xlink="http://www.w3.org/1999/xlink" xml:space="preserve" style="shape-rendering:geometricPrecision;text-rendering:geometricPrecision;image-rendering:optimizeQuality;" viewBox="0 0 7.4623 7.71178" x="0px" y="0px" fill-rule="evenodd" clip-rule="evenodd"><defs><style type="text/css">
   .bg { fill:rgb(64, 189, 182) }
    .fil0 {fill:white}
   
  </style></defs><g>
  <rect class="bg" x="0" y="0" width="10" height="10"></rect>
  
  <path class="fil0" d="M3.23336 0.257419l-0.146777 0.26831c-0.0171002,0.0311468 -0.0466184,0.049672 -0.0820402,0.0513006 -0.0354218,0.00162859 -0.0666704,-0.0139448 -0.0866206,-0.0432594l-0.211208 -0.31218c-0.0140466,-0.0207645 -0.0328772,-0.0339968 -0.0571024,-0.0402058l-0.68584 -0.177923c-0.0242253,-0.006209 -0.0471273,-0.00376611 -0.0695204,0.00753223l-0.453969 0.23014c-0.0259556,0.0131305 -0.0431576,0.0342004 -0.0507916,0.0619882l-0.203777 0.744774c-0.00641257,0.0231056 -0.00458041,0.044888 0.00529292,0.0667722l0.25233 0.560133c0.0135377,0.0300271 0.0384754,0.0497738 0.0707419,0.0561863l0.347806 0.0696222c0.0370504,0.00743044 0.072574,-0.0053947 0.0962904,-0.0347093l0.257215 -0.318593 -0.288464 0.118785c-0.00895724,0.00366433 -0.0181181,0.00610721 -0.0272789,0.00712508l-0.0641257 0.0904885 0.00458041 -0.10311c-0.0107894,-0.00631078 -0.0207645,-0.0148609 -0.0289075,-0.0254467l-0.144334 -0.18627 -0.00295182 -0.0038679 -0.142094 0.00488577 0.12418 -0.0598507c0,-0.00631078 0.000610721,-0.0129269 0.00173038,-0.0195431l0.072574 -0.396053 -0.185863 -0.164691 0.22159 0.0918117c0.00396969,-0.00325718 0.00814295,-0.00631078 0.0128251,-0.00905903l0.172529 -0.105655 0.000814295 -0.000508934 0.0265664 -0.334675 0.0328772 0.32073c0.00946618,0.000916082 0.0187288,0.00325718 0.0280932,0.00702329l0.212531 0.084992c0.0359308,0.0144537 0.0590364,0.0460077 0.0619882,0.0844831l0.00946618 0.127946 -0.0877403 -0.071149c-0.016693,-0.0136394 -0.0348111,-0.0206627 -0.0561863,-0.0218842l-0.0495702 -0.00305361c-0.0343022,-0.00203574 -0.0648382,0.0121126 -0.0852974,0.0394933 -0.0205609,0.0275842 -0.0254467,0.060665 -0.0137412,0.0930332l0.0189324 0.0519113c0.0092626,0.0252431 0.0261592,0.0439719 0.0504863,0.0554738l0.155327 0.0735919c0.0435648,0.0206627 0.0657543,0.0686043 0.0531327,0.115223l-0.179247 0.661615c-0.00183216,0.00681972 -0.00417326,0.012418 -0.00743044,0.0188306l-0.405417 0.797805c-0.00753223,0.0149627 -0.010993,0.0292128 -0.0107894,0.0458041l0.00661615 0.672913c0.000101787,0.0178127 0.00427505,0.0330807 0.0131305,0.0484505l0.187899 0.325616c0.00671793,0.0117055 0.0105858,0.022902 0.0122144,0.0362361l0.108505 0.813379c0.000916082,0.00681972 0.00111966,0.0128251 0.000712508,0.0197466l-0.0741008 1.09696c-0.00132323,0.0201538 -0.069724,0.226069 -0.088351,0.316048l-1.8628 0.843508 1.80712 -0.453155 -0.531633 1.15844 1.01573 -1.47733 5.17108 0.877199 -2.08907 -0.538249 0.265358 -0.408267 1.03049 0.535195 -1.12281 -0.973795 -0.716478 0.696527 -0.0161841 -0.231565c-0.000407147,-0.00865188 0.000203574,-0.0159805 0.00183216,-0.0244288l0.165811 -0.82885c0.00488577,-0.0245306 0.00122144,-0.0472291 -0.0114001,-0.0688079l-0.15095 -0.261389c-0.00885546,-0.015268 -0.0129269,-0.0303325 -0.0132323,-0.0480434l-0.00651436 -0.45c-0.000101787,-0.00600542 0.000305361,-0.0111966 0.00132323,-0.017202l0.101074 -0.627618c0.00183216,-0.0116037 0.00183216,-0.0218842 -0.000305361,-0.0333861l-0.0347093 -0.190952c0.0633114,0.0232074 0.139448,0.0251414 0.216602,0.0106876 0.106876,-0.020052 0.0565935,-0.0182198 0.00549649,-0.0752205 -0.079292,-0.0886564 -0.188407,-0.192683 -0.284291,-0.261694 -0.00458041,-0.0103823 -0.010993,-0.0197466 -0.0195431,-0.0283985l-0.267903 -0.274214c-0.00885546,-0.00905903 -0.0178127,-0.0153698 -0.0294164,-0.0206627l-0.930434 -0.428523c-0.0195431,-0.00895724 -0.033895,-0.0220877 -0.0444809,-0.0407147l-0.230547 -0.404806c-0.0242253,-0.0425469 -0.0142502,-0.0952725 0.0238181,-0.12591l0.0751187 -0.0607668c0.0270753,-0.0216806 0.0400022,-0.053031 0.0362361,-0.0876385l-0.0784777 -0.725537 0.0131305 -0.00396969c0.0309432,-0.0092626 0.061581,-0.00376611 0.0873331,0.0154716 0.0259556,0.0193395 0.0399004,0.0470255 0.0399004,0.0793937l0 0.129371c0,0.0263628 0.00916082,0.0490613 0.0272789,0.0681972l0.0806152 0.0845849c0.0212735,0.0223931 0.0488577,0.0327754 0.0794955,0.0303325l0.161434 -0.0130287c0.0331825,-0.00274825 0.0605632,-0.0198484 0.077358,-0.0486541l0.1424 -0.243372 -0.0929314 0.0283985c-0.0169984,0.00508934 -0.0327754,0.0118073 -0.0490613,0.0143519l-0.0383736 0.0727776 -0.00376611 -0.0770526 -0.0158787 -0.00376611c-0.0447862,-0.0105858 -0.0761366,-0.0497738 -0.0761366,-0.0961886l0 -0.239606c0,-0.0133341 0.00478398,-0.0240217 0.00722687,-0.0369486l0.0487559 -0.263017c0.00325718,-0.0173038 0.0085501,-0.0317575 0.00651436,-0.0492648l-0.026261 -0.209274c-0.00376611,-0.0302307 -0.0192377,-0.0546595 -0.0447862,-0.071149l-0.178331 -0.113899c-0.0233092,-0.0149627 -0.0489595,-0.0192377 -0.0761366,-0.0128251l-0.21131 0.0503845c-0.028195,0.00671793 -0.0499773,0.0233092 -0.0638204,0.0488577zm-1.15172 5.69732l0.0830581 -0.946312c0.00111966,-0.0108912 0.00356254,-0.0202556 0.00793937,-0.0302307l0.0867224 -0.198179c0.00356254,-0.00844831 0.00580185,-0.015777 0.00712508,-0.024836l0.0679936 -0.446539c0.00804116,-0.0529292 0.0568989,-0.0899796 0.10993,-0.0832616l0.178025 0.0222913c0.0393915,0.00488577 0.0705383,0.0308414 0.0822438,0.0687061l0.10138 0.326532c0.00427505,0.0137412 0.00549649,0.0261592 0.00376611,0.0405112l-0.0295182 0.259862c-0.00213752,0.0193395 0.000712508,0.0363379 0.00905903,0.0538452l0.0636168 0.132832c0.00570006,0.0120108 0.00865188,0.0230038 0.00946618,0.0362361l0.0513006 0.773377 -0.737955 -0.190138 -0.0941528 0.205304zm1.03802 0.0379665l-0.0261592 -0.805032c-0.000305361,-0.00865188 0.000407147,-0.0160823 0.00223931,-0.0246324l0.0497738 -0.223931c0.00254467,-0.0115019 0.00295182,-0.021986 0.0015268,-0.0336914l-0.0165913 -0.131916c-0.00162859,-0.0135377 -0.000712508,-0.0253449 0.00285003,-0.0384754l0.0678918 -0.24724c0.0140466,-0.0513006 0.0661615,-0.0823456 0.117971,-0.0701311l0.0992422 0.0233092c0.0305361,0.00712508 0.0538452,0.0261592 0.0670775,0.0545578l0.166727 0.357475c0.00651436,0.0139448 0.0148609,0.0247342 0.0267699,0.0345057l0.25976 0.213447c0.0252431,0.0207645 0.0378647,0.0497738 0.0357272,0.0824474l-0.0614793 1.01359 -0.793327 -0.204286zm0.926871 0.238792l0.120516 -0.733374 0.0767473 -0.453868c0.00498756,-0.0294164 -0.00223931,-0.0565935 -0.0212735,-0.0794955l-0.12703 -0.153596c-0.00865188,-0.010484 -0.0143519,-0.0207645 -0.0184234,-0.0337932l-0.0503845 -0.163775 0.113085 0.0507916c0.018627,0.00844831 0.03247,0.0203574 0.0432594,0.0377629l0.188204 0.301187c0.00458041,0.00722687 0.00916082,0.0130287 0.0153698,0.0189324l0.293655 0.281237c0.0224949,0.0216806 0.0328772,0.0495702 0.0299253,0.080717l-0.105044 0.9912 -0.558606 -0.143927z"/></g></svg>