<?xml version="1.0" encoding="UTF-8" standalone="no"?>
<!-- Created with Inkscape (http://www.inkscape.org/) -->

<svg
   xmlns:dc="http://purl.org/dc/elements/1.1/"
   xmlns:cc="http://creativecommons.org/ns#"
   xmlns:rdf="http://www.w3.org/1999/02/22-rdf-syntax-ns#"
   xmlns:svg="http://www.w3.org/2000/svg"
   xmlns="http://www.w3.org/2000/svg"
   xmlns:sodipodi="http://sodipodi.sourceforge.net/DTD/sodipodi-0.dtd"
   xmlns:inkscape="http://www.inkscape.org/namespaces/inkscape"
   width="640"
   height="360"
   viewBox="0 0 640.00001 360.00001"
   id="svg2"
   version="1.1"
   inkscape:version="0.91 r13725"
   sodipodi:docname="splash.svg">
  <defs
     id="defs4" />
  <sodipodi:namedview
     id="base"
     pagecolor="#ffffff"
     bordercolor="#666666"
     borderopacity="1.0"
     inkscape:pageopacity="0.0"
     inkscape:pageshadow="2"
     inkscape:zoom="0.98994949"
     inkscape:cx="305.8795"
     inkscape:cy="65.910705"
     inkscape:document-units="px"
     inkscape:current-layer="layer2"
     showgrid="false"
     units="px"
     inkscape:window-width="1920"
     inkscape:window-height="1017"
     inkscape:window-x="-8"
     inkscape:window-y="-8"
     inkscape:window-maximized="1" />
  <metadata
     id="metadata7">
    <rdf:RDF>
      <cc:Work
         rdf:about="">
        <dc:format>image/svg+xml</dc:format>
        <dc:type
           rdf:resource="http://purl.org/dc/dcmitype/StillImage" />
        <dc:title></dc:title>
      </cc:Work>
    </rdf:RDF>
  </metadata>
  <g
     inkscape:groupmode="layer"
     id="layer2"
     inkscape:label="レイヤー 2"
     style="display:inline">
    <rect
       transform="translate(0,-692.36216)"
       style="display:inline;opacity:0.98000004;fill:#ebe7de;fill-opacity:1;fill-rule:nonzero;stroke:none;stroke-width:2.5999999;stroke-linecap:round;stroke-miterlimit:0;stroke-dasharray:5.2, 2.60000000000000010;stroke-dashoffset:0;stroke-opacity:1"
       id="rect8130"
       width="640"
       height="360"
       x="0"
       y="692.36218" />
  </g>
  <g
     inkscape:label="レイヤー 1"
     inkscape:groupmode="layer"
     id="layer1"
     transform="translate(0,-692.36216)"
     style="display:inline">
    <text
       xml:space="preserve"
       style="font-style:normal;font-weight:normal;font-size:72.93024445px;line-height:125%;font-family:Sans;letter-spacing:0px;word-spacing:0px;fill:#464855;fill-opacity:1;stroke:none;stroke-width:1px;stroke-linecap:butt;stroke-linejoin:miter;stroke-opacity:1"
       x="175.92087"
       y="904.14795"
       id="text8068"
       sodipodi:linespacing="125%"><tspan
         sodipodi:role="line"
         id="tspan8070"
         x="175.92087"
         y="904.14795"
         style="font-style:normal;font-variant:normal;font-weight:normal;font-stretch:normal;font-family:'Century Gothic';-inkscape-font-specification:'Century Gothic';fill:#464855;fill-opacity:1">Soundknot</tspan></text>
    <g
       style="font-style:normal;font-weight:normal;font-size:40px;line-height:125%;font-family:Sans;letter-spacing:0px;word-spacing:0px;fill:#464855;fill-opacity:1;stroke:none;stroke-width:1px;stroke-linecap:butt;stroke-linejoin:miter;stroke-opacity:1"
       id="text8122"
       transform="matrix(1.8232561,0,0,1.8232561,-318.54437,-688.28201)">
      <path
         d="M 258.82771,857.75252 C 261.45219,862.37315 260.3572,868.85703 255.89186,871.94124 C 254.80664,873.3932 251.24043,872.83993 252.36581,875.15809 C 252.95412,878.44059 254.14396,882.0295 252.26226,885.13215 C 250.3812,888.74165 245.40831,890.11684 241.96685,887.91401 C 239.16687,886.47822 237.17397,882.59044 239.08415,879.73179 C 240.93204,877.50177 245.06953,878.15283 245.91725,881.02286 C 247.34745,883.00337 244.48715,885.71312 244.3979,886.21852 C 247.64475,887.08249 251.32397,884.31462 250.85313,880.85754 C 250.69063,878.59722 250.06903,876.39326 249.69592,874.15826 C 244.29501,874.99771 238.65713,872.94514 234.48823,869.53922 C 230.81948,866.57487 229.40383,861.63571 230.03599,857.07649 C 230.41259,852.19149 232.97236,847.71164 236.65163,844.54291 C 238.62816,842.74136 240.87294,841.25904 243.24068,840.02425 C 242.59216,835.97403 241.38075,831.98127 241.23278,827.87197 C 241.11588,825.10874 243.13926,822.33319 246.02549,822.21527 C 250.04945,821.90901 252.758,826.16282 252.56141,829.82182 C 252.41762,834.90826 249.39832,839.40302 246.04319,843.0157 C 246.64148,845.98616 247.23978,848.95661 247.83806,851.92707 C 252.26309,851.45242 256.79158,853.76165 258.82771,857.75252 Z M 246.89341,827.05079 C 243.66154,827.02444 243.6856,831.00604 244.13713,833.27724 C 244.59077,834.88033 244.62504,837.84526 245.48721,838.58805 C 248.77999,836.567 251.13824,832.05736 249.34954,828.34184 C 248.84376,827.50429 247.86533,827.01194 246.89341,827.05079 Z M 249.28655,872.07999 C 248.38387,867.27268 247.4812,862.46537 246.5785,857.65806 C 242.98493,858.46567 241.17833,862.64633 241.94964,866.03411 C 239.15733,864.94716 238.38545,861.51767 239.3203,858.90974 C 239.81564,855.49195 243.7688,853.79194 245.57923,852.03433 C 245.13559,849.65386 244.63608,847.28267 244.18536,844.90503 C 240.31302,848.67638 235.9842,852.17847 233.22719,856.90232 C 230.87329,861.07191 232.71115,866.53593 236.57093,869.10034 C 240.21455,871.61937 244.90606,872.70417 249.28655,872.07999 Z M 248.8457,857.43763 C 249.76939,862.1085 250.69305,866.77935 251.61674,871.45021 C 256.71035,870.3381 259.35568,862.96342 255.32457,859.27974 C 253.52977,857.79422 251.09645,857.47818 248.8457,857.43763 Z"
         id="path8127"
         inkscape:connector-curvature="0"
         style="fill:#464855;fill-opacity:1" />
    </g>
    <path
       style="opacity:0.98000004;fill:#4f505b;fill-opacity:1;fill-rule:nonzero;stroke:#464855;stroke-width:4;stroke-linecap:butt;stroke-miterlimit:4;stroke-dasharray:none;stroke-dashoffset:0;stroke-opacity:1"
       d="M 167.71018,915.40774 L 553.62136,915.40774"
       id="path8137"
       inkscape:connector-curvature="0"
       sodipodi:nodetypes="cc" />
  </g>
</svg>
